<svg xmlns="http://www.w3.org/2000/svg" xmlns:xlink="http://www.w3.org/1999/xlink" width="500" zoomAndPan="magnify" viewBox="0 0 375 374.999991" height="500" preserveAspectRatio="xMidYMid meet" version="1.0"><defs><clipPath id="e62bb070ce"><path d="M 176 158 L 236 158 L 236 218 L 176 218 Z M 176 158 " clip-rule="nonzero"/></clipPath><clipPath id="23531dc3dc"><path d="M -0.628906 -4.476562 L 379.601562 -0.496094 L 375.625 378.984375 L -4.601562 375.003906 Z M -0.628906 -4.476562 " clip-rule="nonzero"/></clipPath><clipPath id="212933cbb1"><path d="M -132.308594 -104.800781 L 1474.105469 -87.980469 L 1467.941406 500.738281 L -138.472656 483.917969 Z M -132.308594 -104.800781 " clip-rule="nonzero"/></clipPath><clipPath id="5a9813ae6f"><path d="M 27 8 L 252 8 L 252 366 L 27 366 Z M 27 8 " clip-rule="nonzero"/></clipPath><clipPath id="2230a08613"><path d="M -0.628906 -4.476562 L 379.601562 -0.496094 L 375.625 378.984375 L -4.601562 375.003906 Z M -0.628906 -4.476562 " clip-rule="nonzero"/></clipPath><clipPath id="85dadb04a3"><path d="M -132.308594 -104.800781 L 1474.105469 -87.980469 L 1467.941406 500.738281 L -138.472656 483.917969 Z M -132.308594 -104.800781 " clip-rule="nonzero"/></clipPath><clipPath id="47bb926f1e"><path d="M 252 84 L 312 84 L 312 144 L 252 144 Z M 252 84 " clip-rule="nonzero"/></clipPath><clipPath id="b4d84cc4e7"><path d="M -0.628906 -4.476562 L 379.601562 -0.496094 L 375.625 378.984375 L -4.601562 375.003906 Z M -0.628906 -4.476562 " clip-rule="nonzero"/></clipPath><clipPath id="cb2672a170"><path d="M -132.308594 -104.800781 L 1474.105469 -87.980469 L 1467.941406 500.738281 L -138.472656 483.917969 Z M -132.308594 -104.800781 " clip-rule="nonzero"/></clipPath><clipPath id="1f5e2e1447"><path d="M 178 9 L 238 9 L 238 69 L 178 69 Z M 178 9 " clip-rule="nonzero"/></clipPath><clipPath id="b4c7393e0f"><path d="M -0.628906 -4.476562 L 379.601562 -0.496094 L 375.625 378.984375 L -4.601562 375.003906 Z M -0.628906 -4.476562 " clip-rule="nonzero"/></clipPath><clipPath id="f8076996c3"><path d="M -132.308594 -104.800781 L 1474.105469 -87.980469 L 1467.941406 500.738281 L -138.472656 483.917969 Z M -132.308594 -104.800781 " clip-rule="nonzero"/></clipPath><clipPath id="7d5cb3b16b"><path d="M 250 233 L 310 233 L 310 293 L 250 293 Z M 250 233 " clip-rule="nonzero"/></clipPath><clipPath id="d1a3053001"><path d="M -0.628906 -4.476562 L 379.601562 -0.496094 L 375.625 378.984375 L -4.601562 375.003906 Z M -0.628906 -4.476562 " clip-rule="nonzero"/></clipPath><clipPath id="55c3a88337"><path d="M -132.308594 -104.800781 L 1474.105469 -87.980469 L 1467.941406 500.738281 L -138.472656 483.917969 Z M -132.308594 -104.800781 " clip-rule="nonzero"/></clipPath><clipPath id="b0bb1b9294"><path d="M 175 307 L 235 307 L 235 367 L 175 367 Z M 175 307 " clip-rule="nonzero"/></clipPath><clipPath id="f9d8caa804"><path d="M -0.628906 -4.476562 L 379.601562 -0.496094 L 375.625 378.984375 L -4.601562 375.003906 Z M -0.628906 -4.476562 " clip-rule="nonzero"/></clipPath><clipPath id="a1c784bd8c"><path d="M -132.308594 -104.800781 L 1474.105469 -87.980469 L 1467.941406 500.738281 L -138.472656 483.917969 Z M -132.308594 -104.800781 " clip-rule="nonzero"/></clipPath></defs><g clip-path="url(#e62bb070ce)"><g clip-path="url(#23531dc3dc)"><g clip-path="url(#212933cbb1)"><path fill="#ffffff" d="M 235.761719 188.335938 C 235.753906 189.300781 235.695312 190.261719 235.589844 191.21875 C 235.488281 192.175781 235.335938 193.128906 235.136719 194.070312 C 234.941406 195.015625 234.695312 195.945312 234.40625 196.867188 C 234.117188 197.785156 233.785156 198.6875 233.40625 199.574219 C 233.027344 200.460938 232.605469 201.328125 232.144531 202.171875 C 231.679688 203.019531 231.175781 203.839844 230.632812 204.636719 C 230.089844 205.429688 229.507812 206.199219 228.890625 206.9375 C 228.269531 207.675781 227.617188 208.382812 226.929688 209.058594 C 226.238281 209.730469 225.519531 210.371094 224.769531 210.972656 C 224.019531 211.578125 223.238281 212.144531 222.433594 212.671875 C 221.625 213.199219 220.792969 213.683594 219.941406 214.128906 C 219.085938 214.574219 218.210938 214.976562 217.316406 215.335938 C 216.421875 215.695312 215.511719 216.011719 214.589844 216.28125 C 213.664062 216.550781 212.726562 216.777344 211.78125 216.953125 C 210.832031 217.132812 209.878906 217.261719 208.921875 217.347656 C 207.960938 217.433594 207 217.46875 206.035156 217.460938 C 205.070312 217.449219 204.109375 217.390625 203.152344 217.289062 C 202.195312 217.183594 201.246094 217.03125 200.300781 216.832031 C 199.359375 216.636719 198.425781 216.390625 197.507812 216.101562 C 196.589844 215.8125 195.6875 215.480469 194.800781 215.101562 C 193.914062 214.722656 193.046875 214.300781 192.203125 213.839844 C 191.359375 213.375 190.539062 212.871094 189.742188 212.328125 C 188.945312 211.785156 188.179688 211.203125 187.441406 210.582031 C 186.703125 209.964844 185.996094 209.308594 185.320312 208.621094 C 184.648438 207.933594 184.007812 207.210938 183.40625 206.460938 C 182.800781 205.710938 182.238281 204.929688 181.710938 204.121094 C 181.183594 203.316406 180.695312 202.484375 180.25 201.628906 C 179.804688 200.773438 179.402344 199.902344 179.042969 199.007812 C 178.683594 198.113281 178.371094 197.203125 178.101562 196.277344 C 177.832031 195.351562 177.605469 194.414062 177.429688 193.46875 C 177.25 192.519531 177.117188 191.566406 177.035156 190.605469 C 176.949219 189.644531 176.914062 188.683594 176.921875 187.71875 C 176.933594 186.757812 176.992188 185.792969 177.09375 184.835938 C 177.199219 183.878906 177.351562 182.925781 177.546875 181.984375 C 177.746094 181.039062 177.988281 180.109375 178.28125 179.191406 C 178.570312 178.269531 178.902344 177.367188 179.28125 176.480469 C 179.660156 175.59375 180.078125 174.726562 180.542969 173.882812 C 181.003906 173.039062 181.507812 172.214844 182.050781 171.421875 C 182.597656 170.625 183.175781 169.859375 183.796875 169.117188 C 184.414062 168.378906 185.070312 167.671875 185.757812 167 C 186.445312 166.324219 187.167969 165.6875 187.917969 165.082031 C 188.667969 164.476562 189.449219 163.914062 190.253906 163.386719 C 191.0625 162.859375 191.890625 162.371094 192.746094 161.925781 C 193.601562 161.480469 194.476562 161.078125 195.371094 160.71875 C 196.261719 160.359375 197.171875 160.042969 198.097656 159.773438 C 199.023438 159.503906 199.960938 159.28125 200.90625 159.101562 C 201.851562 158.925781 202.804688 158.792969 203.765625 158.707031 C 204.726562 158.625 205.6875 158.585938 206.652344 158.597656 C 207.613281 158.605469 208.574219 158.664062 209.535156 158.769531 C 210.492188 158.875 211.441406 159.023438 212.386719 159.222656 C 213.328125 159.421875 214.257812 159.664062 215.179688 159.953125 C 216.097656 160.242188 217 160.578125 217.886719 160.953125 C 218.773438 161.332031 219.640625 161.753906 220.484375 162.21875 C 221.328125 162.679688 222.148438 163.183594 222.945312 163.726562 C 223.738281 164.273438 224.507812 164.851562 225.246094 165.472656 C 225.984375 166.09375 226.691406 166.746094 227.363281 167.433594 C 228.039062 168.125 228.675781 168.84375 229.28125 169.59375 C 229.882812 170.347656 230.449219 171.125 230.976562 171.933594 C 231.503906 172.738281 231.988281 173.570312 232.433594 174.425781 C 232.878906 175.28125 233.28125 176.15625 233.640625 177.050781 C 234 177.945312 234.316406 178.855469 234.585938 179.78125 C 234.855469 180.703125 235.082031 181.640625 235.257812 182.589844 C 235.4375 183.535156 235.566406 184.488281 235.652344 185.449219 C 235.738281 186.410156 235.773438 187.371094 235.761719 188.335938 Z M 235.761719 188.335938 " fill-opacity="1" fill-rule="nonzero"/></g></g></g><g clip-path="url(#5a9813ae6f)"><g clip-path="url(#2230a08613)"><g clip-path="url(#85dadb04a3)"><path fill="#ffffff" d="M 57.171875 231.6875 C 59.308594 231.710938 61.394531 231.964844 63.398438 232.417969 C 80.9375 224.535156 93.242188 207.011719 93.457031 186.511719 C 93.667969 166.324219 82.09375 148.761719 65.140625 140.355469 C 62.886719 140.878906 60.535156 141.15625 58.117188 141.128906 C 41.875 140.960938 28.835938 127.648438 29.007812 111.390625 C 29.175781 95.132812 42.484375 82.097656 58.734375 82.269531 C 74.976562 82.4375 88.015625 95.75 87.847656 112.007812 C 87.816406 114.972656 87.347656 117.828125 86.5 120.515625 C 92.40625 136.289062 107.527344 147.597656 125.378906 147.785156 C 148.566406 148.027344 167.554688 129.425781 167.796875 106.230469 C 167.984375 88.148438 156.722656 72.628906 140.765625 66.550781 C 138.394531 67.136719 135.921875 67.433594 133.371094 67.410156 C 117.128906 67.238281 104.089844 53.925781 104.261719 37.667969 C 104.429688 21.417969 117.738281 8.375 133.988281 8.546875 C 150.230469 8.714844 163.269531 22.027344 163.101562 38.285156 C 163.074219 40.921875 162.691406 43.472656 162.015625 45.894531 C 165.425781 67.960938 184.355469 84.972656 207.414062 85.214844 C 220.242188 85.351562 231.90625 80.269531 240.398438 71.953125 L 251.355469 83.148438 C 243.449219 90.886719 238.503906 101.644531 238.378906 113.582031 C 238.253906 125.519531 242.996094 136.429688 250.769531 144.335938 L 242.792969 152.183594 C 233.675781 142.8125 220.96875 136.9375 206.863281 136.792969 C 178.757812 136.496094 155.742188 159.054688 155.445312 187.164062 C 155.152344 215.273438 177.699219 238.304688 205.796875 238.597656 C 219.800781 238.746094 232.535156 233.222656 241.832031 224.164062 L 249.871094 232.347656 C 241.917969 240.089844 236.929688 250.878906 236.804688 262.863281 C 236.6875 274.261719 240.996094 284.667969 248.121094 292.472656 L 237.046875 303.921875 C 228.804688 295.949219 217.625 290.976562 205.25 290.847656 C 182.441406 290.609375 163.308594 306.867188 159.164062 328.515625 C 159.886719 331.121094 160.269531 333.867188 160.238281 336.710938 C 160.066406 352.960938 146.761719 366.003906 130.507812 365.835938 C 114.257812 365.664062 101.226562 352.351562 101.398438 336.09375 C 101.566406 319.839844 114.875 306.800781 131.125 306.972656 C 134.6875 307.007812 138.09375 307.679688 141.242188 308.871094 C 155.722656 302.367188 165.886719 287.902344 166.0625 270.980469 C 166.304688 247.785156 147.710938 228.789062 124.523438 228.542969 C 107.007812 228.363281 91.894531 238.9375 85.441406 254.125 C 86.011719 256.464844 86.300781 258.90625 86.273438 261.425781 C 86.105469 277.675781 72.796875 290.71875 56.546875 290.550781 C 40.304688 290.378906 27.265625 277.066406 27.433594 260.8125 C 27.605469 244.5625 40.910156 231.515625 57.164062 231.6875 Z M 57.171875 231.6875 " fill-opacity="1" fill-rule="nonzero"/></g></g></g><g clip-path="url(#47bb926f1e)"><g clip-path="url(#b4d84cc4e7)"><g clip-path="url(#cb2672a170)"><path fill="#ffffff" d="M 311.019531 114.34375 C 311.007812 115.308594 310.953125 116.269531 310.847656 117.226562 C 310.742188 118.1875 310.59375 119.136719 310.394531 120.078125 C 310.195312 121.023438 309.953125 121.953125 309.664062 122.875 C 309.375 123.792969 309.039062 124.695312 308.664062 125.582031 C 308.285156 126.46875 307.863281 127.335938 307.402344 128.179688 C 306.9375 129.027344 306.433594 129.847656 305.890625 130.644531 C 305.347656 131.4375 304.765625 132.207031 304.144531 132.945312 C 303.527344 133.683594 302.875 134.390625 302.183594 135.066406 C 301.496094 135.738281 300.777344 136.378906 300.023438 136.980469 C 299.273438 137.585938 298.496094 138.152344 297.6875 138.679688 C 296.882812 139.207031 296.050781 139.691406 295.195312 140.136719 C 294.339844 140.582031 293.46875 140.984375 292.574219 141.34375 C 291.679688 141.703125 290.769531 142.019531 289.84375 142.289062 C 288.917969 142.558594 287.984375 142.785156 287.035156 142.960938 C 286.089844 143.140625 285.136719 143.269531 284.175781 143.355469 C 283.214844 143.441406 282.253906 143.476562 281.292969 143.46875 C 280.328125 143.457031 279.367188 143.398438 278.410156 143.296875 C 277.453125 143.191406 276.5 143.039062 275.558594 142.839844 C 274.613281 142.644531 273.683594 142.398438 272.765625 142.109375 C 271.84375 141.820312 270.941406 141.488281 270.054688 141.109375 C 269.167969 140.730469 268.304688 140.308594 267.460938 139.847656 C 266.613281 139.382812 265.792969 138.878906 265 138.335938 C 264.203125 137.792969 263.4375 137.210938 262.699219 136.589844 C 261.960938 135.972656 261.253906 135.316406 260.578125 134.628906 C 259.90625 133.941406 259.265625 133.21875 258.660156 132.46875 C 258.058594 131.71875 257.492188 130.9375 256.964844 130.132812 C 256.441406 129.324219 255.953125 128.492188 255.507812 127.636719 C 255.0625 126.78125 254.660156 125.910156 254.300781 125.015625 C 253.941406 124.121094 253.625 123.210938 253.355469 122.285156 C 253.085938 121.359375 252.863281 120.421875 252.683594 119.476562 C 252.507812 118.527344 252.375 117.574219 252.289062 116.613281 C 252.207031 115.652344 252.167969 114.691406 252.179688 113.726562 C 252.191406 112.765625 252.246094 111.804688 252.351562 110.84375 C 252.457031 109.886719 252.605469 108.933594 252.804688 107.992188 C 253.003906 107.046875 253.246094 106.117188 253.535156 105.199219 C 253.824219 104.277344 254.160156 103.375 254.535156 102.488281 C 254.914062 101.601562 255.335938 100.734375 255.796875 99.890625 C 256.261719 99.046875 256.765625 98.222656 257.308594 97.429688 C 257.851562 96.632812 258.433594 95.867188 259.054688 95.125 C 259.671875 94.386719 260.324219 93.679688 261.015625 93.007812 C 261.703125 92.332031 262.421875 91.695312 263.175781 91.089844 C 263.925781 90.484375 264.703125 89.921875 265.511719 89.394531 C 266.316406 88.867188 267.148438 88.378906 268.003906 87.933594 C 268.859375 87.488281 269.730469 87.085938 270.625 86.726562 C 271.519531 86.367188 272.429688 86.054688 273.355469 85.78125 C 274.28125 85.511719 275.214844 85.289062 276.164062 85.109375 C 277.109375 84.933594 278.0625 84.800781 279.023438 84.714844 C 279.984375 84.632812 280.945312 84.59375 281.90625 84.605469 C 282.871094 84.613281 283.832031 84.671875 284.789062 84.777344 C 285.746094 84.882812 286.699219 85.03125 287.640625 85.230469 C 288.585938 85.429688 289.515625 85.671875 290.433594 85.960938 C 291.355469 86.25 292.257812 86.585938 293.144531 86.964844 C 294.027344 87.339844 294.894531 87.761719 295.738281 88.226562 C 296.585938 88.6875 297.40625 89.191406 298.199219 89.734375 C 298.996094 90.28125 299.761719 90.863281 300.5 91.480469 C 301.238281 92.101562 301.945312 92.753906 302.621094 93.441406 C 303.292969 94.132812 303.933594 94.851562 304.539062 95.601562 C 305.140625 96.355469 305.707031 97.132812 306.234375 97.941406 C 306.757812 98.75 307.246094 99.578125 307.691406 100.433594 C 308.136719 101.289062 308.539062 102.164062 308.898438 103.058594 C 309.257812 103.953125 309.574219 104.863281 309.84375 105.789062 C 310.113281 106.710938 310.335938 107.648438 310.515625 108.597656 C 310.691406 109.542969 310.824219 110.496094 310.910156 111.457031 C 310.992188 112.417969 311.03125 113.378906 311.019531 114.34375 Z M 311.019531 114.34375 " fill-opacity="1" fill-rule="nonzero"/></g></g></g><g clip-path="url(#1f5e2e1447)"><g clip-path="url(#b4c7393e0f)"><g clip-path="url(#f8076996c3)"><path fill="#ffffff" d="M 237.328125 39.054688 C 237.316406 40.019531 237.257812 40.980469 237.15625 41.9375 C 237.050781 42.898438 236.898438 43.847656 236.703125 44.789062 C 236.503906 45.734375 236.261719 46.664062 235.96875 47.585938 C 235.679688 48.503906 235.347656 49.40625 234.96875 50.292969 C 234.589844 51.179688 234.171875 52.046875 233.707031 52.890625 C 233.246094 53.738281 232.742188 54.558594 232.199219 55.355469 C 231.652344 56.148438 231.070312 56.917969 230.453125 57.65625 C 229.835938 58.394531 229.179688 59.101562 228.492188 59.777344 C 227.804688 60.449219 227.082031 61.089844 226.332031 61.691406 C 225.582031 62.296875 224.800781 62.863281 223.996094 63.390625 C 223.1875 63.917969 222.359375 64.402344 221.503906 64.847656 C 220.648438 65.292969 219.773438 65.695312 218.878906 66.054688 C 217.988281 66.414062 217.078125 66.730469 216.152344 67 C 215.226562 67.269531 214.289062 67.496094 213.34375 67.671875 C 212.398438 67.851562 211.445312 67.980469 210.484375 68.066406 C 209.523438 68.152344 208.5625 68.1875 207.597656 68.179688 C 206.636719 68.167969 205.675781 68.109375 204.714844 68.007812 C 203.757812 67.902344 202.808594 67.75 201.863281 67.550781 C 200.921875 67.355469 199.992188 67.109375 199.070312 66.820312 C 198.152344 66.53125 197.25 66.199219 196.363281 65.820312 C 195.476562 65.441406 194.609375 65.019531 193.765625 64.558594 C 192.921875 64.09375 192.101562 63.589844 191.304688 63.046875 C 190.511719 62.503906 189.742188 61.921875 189.003906 61.300781 C 188.265625 60.683594 187.558594 60.027344 186.886719 59.339844 C 186.210938 58.652344 185.574219 57.929688 184.96875 57.179688 C 184.367188 56.429688 183.800781 55.648438 183.273438 54.84375 C 182.746094 54.035156 182.261719 53.203125 181.816406 52.347656 C 181.371094 51.492188 180.96875 50.621094 180.609375 49.726562 C 180.25 48.832031 179.933594 47.921875 179.664062 46.996094 C 179.394531 46.070312 179.167969 45.132812 178.992188 44.1875 C 178.8125 43.238281 178.683594 42.285156 178.597656 41.324219 C 178.511719 40.363281 178.476562 39.402344 178.488281 38.4375 C 178.496094 37.476562 178.554688 36.515625 178.660156 35.554688 C 178.761719 34.597656 178.914062 33.644531 179.113281 32.703125 C 179.308594 31.757812 179.554688 30.828125 179.84375 29.910156 C 180.132812 28.988281 180.464844 28.085938 180.84375 27.199219 C 181.222656 26.3125 181.644531 25.445312 182.105469 24.601562 C 182.570312 23.757812 183.070312 22.933594 183.617188 22.140625 C 184.160156 21.34375 184.742188 20.578125 185.359375 19.835938 C 185.980469 19.097656 186.632812 18.390625 187.320312 17.71875 C 188.011719 17.042969 188.730469 16.40625 189.480469 15.800781 C 190.230469 15.195312 191.011719 14.632812 191.816406 14.105469 C 192.625 13.578125 193.457031 13.089844 194.308594 12.644531 C 195.164062 12.199219 196.039062 11.796875 196.933594 11.4375 C 197.828125 11.078125 198.738281 10.761719 199.660156 10.492188 C 200.585938 10.222656 201.523438 10 202.46875 9.820312 C 203.417969 9.644531 204.371094 9.511719 205.328125 9.425781 C 206.289062 9.34375 207.25 9.304688 208.214844 9.316406 C 209.179688 9.324219 210.140625 9.382812 211.097656 9.488281 C 212.054688 9.59375 213.003906 9.742188 213.949219 9.941406 C 214.890625 10.140625 215.824219 10.382812 216.742188 10.671875 C 217.660156 10.960938 218.5625 11.296875 219.449219 11.675781 C 220.335938 12.050781 221.203125 12.472656 222.046875 12.9375 C 222.890625 13.398438 223.710938 13.902344 224.507812 14.445312 C 225.304688 14.992188 226.070312 15.574219 226.808594 16.191406 C 227.546875 16.8125 228.253906 17.464844 228.925781 18.152344 C 229.601562 18.84375 230.242188 19.5625 230.84375 20.3125 C 231.449219 21.066406 232.011719 21.84375 232.539062 22.652344 C 233.066406 23.460938 233.554688 24.289062 234 25.144531 C 234.445312 26 234.847656 26.875 235.207031 27.769531 C 235.566406 28.664062 235.878906 29.574219 236.148438 30.5 C 236.417969 31.421875 236.644531 32.359375 236.820312 33.308594 C 237 34.253906 237.132812 35.207031 237.214844 36.167969 C 237.300781 37.128906 237.335938 38.089844 237.328125 39.054688 Z M 237.328125 39.054688 " fill-opacity="1" fill-rule="nonzero"/></g></g></g><g clip-path="url(#7d5cb3b16b)"><g clip-path="url(#d1a3053001)"><g clip-path="url(#55c3a88337)"><path fill="#ffffff" d="M 309.457031 263.625 C 309.445312 264.589844 309.390625 265.550781 309.285156 266.507812 C 309.179688 267.464844 309.027344 268.417969 308.832031 269.359375 C 308.632812 270.304688 308.390625 271.234375 308.101562 272.15625 C 307.8125 273.074219 307.476562 273.976562 307.097656 274.863281 C 306.722656 275.75 306.300781 276.617188 305.835938 277.460938 C 305.375 278.308594 304.871094 279.128906 304.328125 279.925781 C 303.78125 280.71875 303.203125 281.488281 302.582031 282.226562 C 301.964844 282.964844 301.308594 283.671875 300.621094 284.347656 C 299.933594 285.019531 299.214844 285.660156 298.460938 286.261719 C 297.710938 286.867188 296.933594 287.433594 296.125 287.960938 C 295.316406 288.488281 294.488281 288.972656 293.632812 289.417969 C 292.777344 289.863281 291.902344 290.265625 291.011719 290.625 C 290.117188 290.984375 289.207031 291.300781 288.28125 291.570312 C 287.355469 291.839844 286.421875 292.066406 285.472656 292.242188 C 284.527344 292.421875 283.574219 292.550781 282.613281 292.636719 C 281.652344 292.722656 280.691406 292.757812 279.726562 292.75 C 278.765625 292.738281 277.804688 292.679688 276.847656 292.578125 C 275.886719 292.472656 274.9375 292.320312 273.996094 292.121094 C 273.050781 291.925781 272.121094 291.679688 271.199219 291.390625 C 270.28125 291.101562 269.378906 290.769531 268.492188 290.390625 C 267.605469 290.011719 266.742188 289.589844 265.894531 289.128906 C 265.050781 288.664062 264.230469 288.160156 263.433594 287.617188 C 262.640625 287.074219 261.871094 286.492188 261.132812 285.871094 C 260.394531 285.253906 259.6875 284.597656 259.015625 283.910156 C 258.339844 283.222656 257.703125 282.5 257.097656 281.75 C 256.496094 281 255.929688 280.21875 255.402344 279.410156 C 254.875 278.605469 254.390625 277.773438 253.945312 276.917969 C 253.5 276.0625 253.097656 275.191406 252.738281 274.296875 C 252.378906 273.402344 252.0625 272.492188 251.792969 271.566406 C 251.523438 270.640625 251.300781 269.703125 251.121094 268.757812 C 250.941406 267.808594 250.8125 266.855469 250.726562 265.894531 C 250.644531 264.933594 250.605469 263.972656 250.617188 263.007812 C 250.625 262.046875 250.683594 261.085938 250.789062 260.125 C 250.890625 259.167969 251.042969 258.214844 251.242188 257.273438 C 251.4375 256.328125 251.683594 255.398438 251.972656 254.480469 C 252.261719 253.558594 252.59375 252.65625 252.972656 251.769531 C 253.351562 250.882812 253.773438 250.015625 254.234375 249.171875 C 254.699219 248.328125 255.203125 247.503906 255.746094 246.710938 C 256.289062 245.914062 256.871094 245.148438 257.488281 244.40625 C 258.109375 243.667969 258.761719 242.960938 259.449219 242.289062 C 260.140625 241.613281 260.859375 240.976562 261.609375 240.371094 C 262.363281 239.765625 263.140625 239.203125 263.949219 238.675781 C 264.753906 238.148438 265.585938 237.660156 266.441406 237.214844 C 267.292969 236.769531 268.167969 236.367188 269.0625 236.007812 C 269.957031 235.648438 270.867188 235.332031 271.789062 235.0625 C 272.714844 234.792969 273.652344 234.570312 274.597656 234.390625 C 275.546875 234.214844 276.5 234.082031 277.460938 233.996094 C 278.417969 233.914062 279.382812 233.875 280.34375 233.886719 C 281.308594 233.894531 282.269531 233.953125 283.226562 234.058594 C 284.183594 234.164062 285.136719 234.3125 286.078125 234.511719 C 287.019531 234.710938 287.953125 234.953125 288.871094 235.242188 C 289.789062 235.53125 290.691406 235.867188 291.578125 236.242188 C 292.464844 236.621094 293.332031 237.042969 294.175781 237.507812 C 295.023438 237.96875 295.84375 238.472656 296.636719 239.015625 C 297.433594 239.5625 298.199219 240.140625 298.9375 240.761719 C 299.675781 241.382812 300.382812 242.035156 301.058594 242.722656 C 301.730469 243.414062 302.371094 244.132812 302.972656 244.882812 C 303.578125 245.636719 304.140625 246.414062 304.667969 247.222656 C 305.195312 248.027344 305.683594 248.859375 306.128906 249.714844 C 306.574219 250.570312 306.976562 251.445312 307.335938 252.339844 C 307.695312 253.234375 308.007812 254.144531 308.277344 255.070312 C 308.550781 255.992188 308.773438 256.929688 308.953125 257.878906 C 309.128906 258.824219 309.261719 259.777344 309.34375 260.738281 C 309.429688 261.699219 309.464844 262.660156 309.457031 263.625 Z M 309.457031 263.625 " fill-opacity="1" fill-rule="nonzero"/></g></g></g><g clip-path="url(#b0bb1b9294)"><g clip-path="url(#f9d8caa804)"><g clip-path="url(#a1c784bd8c)"><path fill="#ffffff" d="M 234.199219 337.617188 C 234.191406 338.582031 234.132812 339.542969 234.027344 340.5 C 233.921875 341.457031 233.773438 342.410156 233.574219 343.351562 C 233.375 344.296875 233.132812 345.226562 232.84375 346.148438 C 232.554688 347.066406 232.222656 347.96875 231.84375 348.855469 C 231.464844 349.742188 231.042969 350.609375 230.582031 351.453125 C 230.117188 352.300781 229.613281 353.121094 229.070312 353.917969 C 228.527344 354.710938 227.945312 355.480469 227.328125 356.21875 C 226.707031 356.957031 226.054688 357.664062 225.363281 358.339844 C 224.675781 359.011719 223.957031 359.652344 223.207031 360.253906 C 222.453125 360.859375 221.675781 361.425781 220.867188 361.953125 C 220.0625 362.476562 219.230469 362.964844 218.375 363.410156 C 217.523438 363.855469 216.648438 364.257812 215.753906 364.617188 C 214.859375 364.976562 213.949219 365.292969 213.023438 365.5625 C 212.101562 365.832031 211.164062 366.058594 210.21875 366.234375 C 209.269531 366.414062 208.316406 366.542969 207.355469 366.628906 C 206.398438 366.714844 205.433594 366.75 204.472656 366.742188 C 203.507812 366.730469 202.546875 366.671875 201.589844 366.570312 C 200.632812 366.464844 199.679688 366.3125 198.738281 366.113281 C 197.796875 365.917969 196.863281 365.671875 195.945312 365.382812 C 195.027344 365.09375 194.121094 364.761719 193.238281 364.382812 C 192.351562 364.003906 191.484375 363.582031 190.640625 363.121094 C 189.792969 362.65625 188.972656 362.152344 188.179688 361.609375 C 187.382812 361.066406 186.617188 360.484375 185.878906 359.863281 C 185.140625 359.246094 184.433594 358.589844 183.757812 357.902344 C 183.085938 357.214844 182.445312 356.492188 181.84375 355.742188 C 181.238281 354.992188 180.671875 354.210938 180.148438 353.402344 C 179.621094 352.597656 179.132812 351.765625 178.6875 350.910156 C 178.242188 350.054688 177.839844 349.179688 177.480469 348.289062 C 177.121094 347.394531 176.808594 346.484375 176.539062 345.558594 C 176.265625 344.632812 176.042969 343.695312 175.863281 342.75 C 175.6875 341.800781 175.554688 340.847656 175.472656 339.886719 C 175.386719 338.925781 175.351562 337.964844 175.359375 337 C 175.371094 336.035156 175.425781 335.074219 175.53125 334.117188 C 175.636719 333.160156 175.789062 332.207031 175.984375 331.265625 C 176.183594 330.320312 176.425781 329.390625 176.714844 328.472656 C 177.003906 327.550781 177.339844 326.648438 177.71875 325.761719 C 178.09375 324.875 178.515625 324.007812 178.980469 323.164062 C 179.441406 322.316406 179.945312 321.496094 180.488281 320.703125 C 181.03125 319.90625 181.613281 319.136719 182.234375 318.398438 C 182.851562 317.660156 183.507812 316.953125 184.195312 316.28125 C 184.882812 315.605469 185.601562 314.964844 186.355469 314.363281 C 187.105469 313.757812 187.882812 313.195312 188.691406 312.667969 C 189.5 312.140625 190.328125 311.652344 191.183594 311.207031 C 192.039062 310.761719 192.910156 310.359375 193.804688 310 C 194.699219 309.640625 195.609375 309.324219 196.535156 309.054688 C 197.460938 308.785156 198.394531 308.5625 199.34375 308.382812 C 200.289062 308.203125 201.242188 308.074219 202.203125 307.988281 C 203.164062 307.90625 204.125 307.867188 205.089844 307.878906 C 206.050781 307.886719 207.011719 307.945312 207.96875 308.050781 C 208.929688 308.152344 209.878906 308.304688 210.820312 308.503906 C 211.765625 308.703125 212.695312 308.945312 213.613281 309.234375 C 214.535156 309.523438 215.4375 309.859375 216.324219 310.234375 C 217.210938 310.613281 218.074219 311.035156 218.921875 311.5 C 219.765625 311.960938 220.585938 312.464844 221.382812 313.007812 C 222.175781 313.554688 222.945312 314.132812 223.683594 314.753906 C 224.421875 315.375 225.125 316.027344 225.800781 316.714844 C 226.476562 317.40625 227.113281 318.125 227.71875 318.875 C 228.320312 319.628906 228.886719 320.40625 229.414062 321.214844 C 229.941406 322.019531 230.425781 322.851562 230.871094 323.707031 C 231.316406 324.5625 231.71875 325.4375 232.078125 326.332031 C 232.4375 327.226562 232.753906 328.136719 233.023438 329.058594 C 233.292969 329.984375 233.515625 330.921875 233.695312 331.871094 C 233.871094 332.816406 234.003906 333.769531 234.089844 334.730469 C 234.171875 335.691406 234.210938 336.652344 234.199219 337.617188 Z M 234.199219 337.617188 " fill-opacity="1" fill-rule="nonzero"/></g></g></g></svg>