<?xml version="1.0" encoding="UTF-8" standalone="no"?>
<!-- Created with Inkscape (http://www.inkscape.org/) -->

<svg
   width="180"
   height="180"
   viewBox="0 0 180 180"
   version="1.1"
   id="svg1"
   xml:space="preserve"
   inkscape:version="1.4 (86a8ad7, 2024-10-11)"
   sodipodi:docname="SCaddins.svg"
   inkscape:export-filename="SCaddins.png"
   inkscape:export-xdpi="96"
   inkscape:export-ydpi="96"
   xmlns:inkscape="http://www.inkscape.org/namespaces/inkscape"
   xmlns:sodipodi="http://sodipodi.sourceforge.net/DTD/sodipodi-0.dtd"
   xmlns="http://www.w3.org/2000/svg"
   xmlns:svg="http://www.w3.org/2000/svg"><sodipodi:namedview
     id="namedview1"
     pagecolor="#ffffff"
     bordercolor="#000000"
     borderopacity="0.25"
     inkscape:showpageshadow="2"
     inkscape:pageopacity="0.0"
     inkscape:pagecheckerboard="0"
     inkscape:deskcolor="#d1d1d1"
     inkscape:document-units="px"
     inkscape:zoom="0.56597222"
     inkscape:cx="-30.03681"
     inkscape:cy="-24.736196"
     inkscape:window-width="1529"
     inkscape:window-height="826"
     inkscape:window-x="231"
     inkscape:window-y="47"
     inkscape:window-maximized="0"
     inkscape:current-layer="layer1" /><defs
     id="defs1"><filter
       style="color-interpolation-filters:sRGB;"
       inkscape:label="Invert"
       id="filter1"
       x="0"
       y="0"
       width="1"
       height="1"><feColorMatrix
         values="1 0 0 0 0 0 1 0 0 0 0 0 1 0 0 -0.21 -0.72 -0.07 2 0 "
         result="fbSourceGraphic"
         id="feColorMatrix1" /><feColorMatrix
         result="fbSourceGraphicAlpha"
         in="fbSourceGraphic"
         values="0 0 0 -1 0 0 0 0 -1 0 0 0 0 -1 0 0 0 0 1 0"
         id="feColorMatrix2" /><feColorMatrix
         id="feColorMatrix3"
         values="-1 0 0 0 1 0 -1 0 0 1 0 0 -1 0 1 -0.21 -0.72 -0.07 2 0 "
         result="color2"
         in="fbSourceGraphic" /></filter></defs><g
     inkscape:label="Layer 1"
     inkscape:groupmode="layer"
     id="layer1"><path
       d="m 160.79928,149.35212 c -0.13141,-1.14736 -0.51667,-2.32037 -0.9018,-2.7242 -0.25363,-0.2564 -1.02395,-0.46151 -2.16998,-0.57049 -0.58243,-0.0577 -1.09907,-0.0897 -1.15543,-0.0641 -0.0471,0.0192 -0.094,0.0962 -0.094,0.16666 -3e-5,0.0641 -0.0374,0.12179 -0.0845,0.12179 -0.0565,0 -0.12214,0.1282 -0.15031,0.28844 l -0.066,0.28203 -0.67634,-0.24999 c -1.18362,-0.43587 -1.84118,-0.47433 -2.32027,-0.12178 l -0.2442,0.1795 -4.54657,-0.34614 c -2.49878,-0.19228 -4.81905,-0.37817 -5.15722,-0.41663 -0.33817,-0.0385 -1.89755,-0.1859 -3.47571,-0.3269 -1.57814,-0.14104 -4.06749,-0.36537 -5.54232,-0.50639 -1.47485,-0.13461 -3.86085,-0.35255 -5.30751,-0.48075 -2.94965,-0.25639 -3.33479,-0.30126 -4.45265,-0.51919 -1.11787,-0.21794 -1.70028,-0.41665 -3.72934,-1.27558 -3.31602,-1.41018 -4.70629,-1.82681 -6.75414,-2.01911 -0.52606,-0.0513 -9.38442,-0.0833 -28.932892,-0.10897 -29.08319,-0.0385 -29.938023,-0.032 -31.826185,0.21152 -2.000867,0.2564 -3.541464,0.92944 -4.199022,1.82682 -1.174231,1.58325 -1.69088,4.07028 -1.69088,8.19825 0,5.34585 0.845441,8.57644 2.5833,9.85842 0.619994,0.4615 1.183612,0.66021 2.677225,0.93584 l 1.080279,0.19871 28.557145,0.0192 c 18.69363,0.0128 28.98923,-0.006 29.7971,-0.0449 3.07177,-0.16024 5.95566,-0.83328 8.43562,-1.96142 1.02391,-0.46792 2.46117,-0.98071 3.42873,-1.2307 1.62514,-0.41665 3.08118,-0.5833 13.29223,-1.49351 3.15634,-0.28203 6.03082,-0.55766 6.38779,-0.60893 0.61058,-0.0898 6.13414,-0.58331 8.28532,-0.73715 l 0.96755,-0.0705 0.35699,0.2564 c 0.61057,0.43588 1.28694,0.41024 2.32965,-0.0897 0.54483,-0.26921 0.6012,-0.27562 0.6012,-0.0641 0,0.0897 0.0469,0.16024 0.094,0.16024 0.0565,0 0.0938,0.0897 0.0938,0.1923 0,0.12178 0.0565,0.21153 0.1503,0.23717 0.24425,0.0641 2.23572,-0.0897 2.63028,-0.20512 0.7421,-0.21153 1.08027,-0.56407 1.3527,-1.4294 0.094,-0.30768 0.21606,-0.85894 0.27242,-1.2307 0.13158,-0.96149 0.19727,-3.43571 0.10324,-4.23695 z"
       id="path1-5"
       style="fill:#cccccc;stroke:none;stroke-width:0.00775976" /><path
       d="m 153.8941,23.228774 c -1.97871,-1.691655 -4.27526,-3.147495 -5.34152,-3.373048 -0.68692,-0.133286 -1.85568,0.379335 -3.28078,1.455839 -0.72794,0.543355 -1.34306,1.055995 -1.36357,1.158527 -0.0206,0.08195 0.0513,0.256306 0.16405,0.369082 0.10248,0.102525 0.15381,0.235778 0.10248,0.287096 -0.0615,0.06147 0.0718,0.338321 0.29732,0.625397 l 0.37929,0.522913 -1.13802,0.33833 c -1.98897,0.594636 -2.76814,1.250795 -2.72715,2.337553 l 0.0206,0.553628 -5.5158,4.408546 c -3.03472,2.419576 -5.86441,4.654607 -6.29499,4.962183 -0.43066,0.307529 -2.36832,1.77367 -4.31628,3.270527 -1.94797,1.496847 -5.0237,3.854917 -6.85888,5.238998 -1.82494,1.394325 -4.77764,3.649853 -6.56157,5.023688 -3.62936,2.809167 -4.12146,3.157751 -5.69009,4.02921 -1.56863,0.871459 -2.52211,1.18928 -6.110456,2.029976 -5.874648,1.363572 -8.05841,2.214522 -10.601025,4.141985 C 88.4015,61.10128 78.682224,70.718108 57.305901,92.012417 25.502798,123.6924 24.58017,124.6357 22.908975,127.086 c -1.773669,2.59385 -2.378559,5.35177 -1.660894,7.50478 1.250796,3.81391 4.664862,8.35572 11.26743,14.95829 8.550532,8.55053 14.64048,12.79504 18.587666,12.94883 1.414832,0.0615 2.347807,-0.23581 4.4188,-1.42509 l 1.496856,-0.8612 31.19813,-31.13666 c 20.422827,-20.38186 31.628767,-31.649263 32.448917,-32.592536 3.09624,-3.608848 5.16722,-7.832857 6.06944,-12.343926 0.36908,-1.865938 1.11751,-4.254761 1.77367,-5.710611 1.10726,-2.440075 2.42982,-4.29576 12.11837,-16.896008 2.99372,-3.895925 5.6901,-7.474028 5.99768,-7.945632 0.52286,-0.809953 5.76187,-7.627821 7.86361,-10.221689 l 0.94322,-1.168773 0.7997,0.02049 c 1.36357,0.03077 2.06073,-0.748419 2.39906,-2.686128 0.16404,-1.025252 0.21532,-1.09702 0.55364,-0.758682 0.14354,0.14353 0.30753,0.205081 0.35884,0.153783 0.0615,-0.06147 0.24606,0.04102 0.41009,0.205055 0.19479,0.19479 0.3999,0.276767 0.54338,0.215297 0.36909,-0.164045 2.29654,-2.583621 2.54261,-3.198756 0.47161,-1.148272 0.27681,-2.081248 -0.80994,-3.76265 -0.3896,-0.594644 -1.13804,-1.609632 -1.67114,-2.265792 -1.39435,-1.681393 -5.28,-5.710602 -6.6641,-6.889628 z"
       id="path1"
       style="fill:#000000;stroke:none;stroke-width:0.0144991" /><g
       id="g10"
       transform="matrix(0.01002527,-0.01002527,-0.01002527,-0.01002527,61.888383,136.70445)"
       style="filter:url(#filter1)"><path
         d="m 4464.73,442.48 c 0,-23.941 -61.84,-337.82 -348.93,-423.73 -301.24,85.691 -440.1,404.219 -440.1,744.176 0,336.554 165.63,635.394 437.84,718.324 274.16,-85.05 334.58,-378.41 334.58,-423.14 h 325.15 c 0,52.55 -83.19,441.89 -498.3,441.89 -0.25,0 -325.91,-0.02 -325.91,-0.02 -367.28,-0.47 -598.51,-338.72 -598.51,-737.054 C 3350.55,364.309 3542.16,0 3957.62,0 h 325.16 c 423.8,0 507.11,414.602 507.11,442.48 h -325.16"
         style="fill:#231f20;fill-opacity:1;fill-rule:nonzero;stroke:none"
         id="path12" /><path
         d="m 1504.57,0.421875 h 287.99 V 281.25 H 1504.57 V 0.421875"
         style="fill:#231f20;fill-opacity:1;fill-rule:nonzero;stroke:none"
         id="path14" /><path
         d="m 1039.03,729.922 c -62.729,16.68 -267.182,65.726 -361.182,92.855 -97.953,28.27 -304.11,102.219 -304.11,316.033 0,167.85 121.625,296.73 305.875,342.44 269.965,-66.91 343.667,-332.76 343.667,-375 h 307.09 c 0,26.66 -54.51,393.75 -484.64,393.75 H 520.574 C 243.656,1500 48.5781,1352.63 48.5781,1138.81 48.5781,924.996 254.738,851.047 352.691,822.777 446.68,795.648 651.152,746.602 713.879,729.922 770.66,714.828 1044.23,657.223 1044.23,390.969 1044.23,180.949 882.969,62.2109 703.492,18.75 375.898,97.3789 325.117,403.852 325.117,442.48 H 0 C 0,406.781 61.1055,0 544.855,0 h 325.157 c 228.278,0 499.378,119.148 499.378,390.969 0,266.254 -273.57,323.859 -330.36,338.953"
         style="fill:#231f20;fill-opacity:1;fill-rule:nonzero;stroke:none"
         id="path16" /><path
         d="m 2943.41,729.922 c -62.73,16.68 -267.19,65.726 -361.18,92.855 -97.96,28.27 -304.12,102.219 -304.12,316.033 0,167.85 121.63,296.73 305.88,342.44 269.96,-66.91 343.66,-332.76 343.66,-375 h 307.1 c 0,26.66 -54.52,393.75 -484.64,393.75 h -325.16 c -276.92,0 -471.99,-147.37 -471.99,-361.19 0,-213.814 206.16,-287.763 304.11,-316.033 93.99,-27.129 298.46,-76.175 361.18,-92.855 56.79,-15.094 330.36,-72.699 330.36,-338.953 0,-210.02 -161.26,-328.7581 -340.74,-372.219 C 2280.28,97.3789 2229.5,403.852 2229.5,442.48 H 1904.38 C 1904.38,406.781 1965.48,0 2449.23,0 h 325.16 c 228.28,0 499.38,119.148 499.38,390.969 0,266.254 -273.57,323.859 -330.36,338.953"
         style="fill:#231f20;fill-opacity:1;fill-rule:nonzero;stroke:none"
         id="path18" /></g><path
       class="st0"
       d="m 157.85632,69.551963 c 0.6281,2.68365 1.349,4.82724 2.1507,6.418882 0.8018,1.59163 2.0294,3.3165 3.6758,5.17697 l 0.709,0.78987 c 2.1507,2.3934 3.2237,4.79394 3.2237,7.18734 0,2.65035 -0.9564,4.92241 -2.8716,6.81619 -1.9223,1.89379 -4.2134,2.84544 -6.8828,2.84544 -2.6623,0 -4.9486,-0.95165 -6.8709,-2.84544 -1.9176,-1.89378 -2.8764,-4.16584 -2.8764,-6.81619 0,-2.3934 1.073,-4.79394 3.2237,-7.18734 l 0.709,-0.78987 c 1.644,-1.86047 2.8716,-3.58534 3.6757,-5.17697 0.7994,-1.591642 1.5155,-3.735232 2.1341,-6.418882 z m -6.4569,18.150342 c -0.05,-0.54244 0.3521,-1.02302 0.8945,-1.07298 0.5448,-0.05 1.0254,0.35211 1.073,0.89455 0.1237,1.31328 0.4116,2.52425 0.9612,3.56869 0.5305,1.00875 1.3204,1.87713 2.4624,2.54566 0.471,0.27598 0.6281,0.88266 0.3521,1.35134 -0.276,0.47107 -0.8827,0.62809 -1.3514,0.35211 -1.4869,-0.87076 -2.5171,-2.00322 -3.2142,-3.32839 -0.678,-1.28949 -1.0301,-2.74789 -1.1776,-4.31098 z"
       id="path1-2"
       style="stroke-width:0.237912;fill:#000080" /><path
       class="st0"
       d="m 157.56118,111.91929 c 0.6281,2.68365 1.349,4.82724 2.1507,6.41888 0.8018,1.59163 2.0294,3.3165 3.6758,5.17697 l 0.709,0.78987 c 2.1507,2.3934 3.2237,4.79394 3.2237,7.18734 0,2.65035 -0.9564,4.92241 -2.8716,6.81619 -1.9223,1.89379 -4.2134,2.84544 -6.8828,2.84544 -2.6623,0 -4.9486,-0.95165 -6.8709,-2.84544 -1.9176,-1.89378 -2.8764,-4.16584 -2.8764,-6.81619 0,-2.3934 1.073,-4.79394 3.2237,-7.18734 l 0.709,-0.78987 c 1.644,-1.86047 2.8716,-3.58534 3.6757,-5.17697 0.7994,-1.59164 1.5155,-3.73523 2.1341,-6.41888 z m -6.4569,18.15034 c -0.05,-0.54244 0.3521,-1.02302 0.8945,-1.07298 0.5448,-0.05 1.0254,0.35211 1.073,0.89455 0.1237,1.31328 0.4116,2.52425 0.9612,3.56869 0.5305,1.00875 1.3204,1.87713 2.4624,2.54566 0.471,0.27598 0.6281,0.88266 0.3521,1.35134 -0.276,0.47107 -0.8827,0.62809 -1.3514,0.35211 -1.4869,-0.87076 -2.5171,-2.00322 -3.2142,-3.32839 -0.678,-1.28949 -1.0301,-2.74789 -1.1776,-4.31098 z"
       id="path1-2-1"
       style="clip-rule:evenodd;fill-rule:evenodd;stroke-width:0.237912;fill:#000080" /></g><style
     type="text/css"
     id="style1">.st0{fill-rule:evenodd;clip-rule:evenodd;}</style></svg>
